<svg xmlns="http://www.w3.org/2000/svg" fill="#FF3232" viewBox="0 0 36 36">
  <path d="M14.3395 2.76564C15.4917 -0.921876 20.5083 -0.921882 21.6605 2.76563L23.2711 7.92059C23.7864 9.5697 25.2642 10.6862 26.9316 10.6862H32.1438C35.8722 10.6862 37.4225 15.6477 34.4061 17.9268L30.1893 21.1127C28.8403 22.1319 28.2759 23.9385 28.7911 25.5876L30.4018 30.7425C31.554 34.4301 27.4954 37.4965 24.479 35.2175L20.2623 32.0315C18.9133 31.0123 17.0867 31.0123 15.7377 32.0315L11.521 35.2174C8.50457 37.4965 4.44604 34.4301 5.5982 30.7426L7.20885 25.5876C7.72411 23.9385 7.15965 22.1319 5.81068 21.1127L1.59393 17.9268C-1.42246 15.6478 0.127752 10.6862 3.85621 10.6862H9.06841C10.7358 10.6862 12.2136 9.5697 12.7289 7.92059L14.3395 2.76564Z" fill="#FF3232"/>

  <defs>
    <linearGradient id="gradient" x1="16" x2="16" y1="32" y2="24" gradientUnits="userSpaceOnUse">
      <stop stop-color="#000"/>
      <stop offset="1" stop-color="#000" stop-opacity="0"/>
    </linearGradient>
  </defs>
</svg>
