<svg xmlns="http://www.w3.org/2000/svg" fill="none" viewBox="0 0 36 36">
  <path fill-rule="evenodd" clip-rule="evenodd" d="M92.6415 0C82.1481 0 73.6415 8.50659 73.6415 19V84.1635C72.8048 84.1963 71.9615 84.2751 71.1142 84.4018L47.725 87.8996C17.1372 92.474 -3.95088 120.979 0.623495 151.566L2.16154 161.851C3.91403 173.569 9.14153 183.908 16.6415 191.978C16.6415 191.986 16.6415 191.993 16.6415 192V221C16.6415 227.075 21.5664 232 27.6415 232H100.642C106.717 232 111.642 227.075 111.642 221V192C111.642 191.619 111.622 191.243 111.584 190.873L184.383 157.949C193.351 153.893 197.333 143.336 193.277 134.368C188.709 124.267 176.072 120.701 166.249 125.84C152.752 132.901 135.21 139.884 126.142 134.5C116.058 128.513 112.727 108.626 111.642 94.7357V19C111.642 8.50659 103.135 0 92.6415 0Z" fill="#FF3232"/>
  <path d="M61.712 168.864C59.28 168.864 57.296 168.352 55.76 167.328C54.288 166.304 53.04 164.672 52.016 162.432L28.784 111.168C27.76 108.928 27.44 106.912 27.824 105.12C28.208 103.328 29.104 101.952 30.512 100.992C31.92 99.968 33.68 99.456 35.792 99.456C38.416 99.456 40.368 100.032 41.648 101.184C42.992 102.336 44.144 104.032 45.104 106.272L64.688 151.584H59.312L78.896 106.176C79.856 103.936 81.008 102.272 82.352 101.184C83.696 100.032 85.584 99.456 88.016 99.456C90 99.456 91.664 99.968 93.008 100.992C94.352 101.952 95.184 103.328 95.504 105.12C95.888 106.912 95.568 108.928 94.544 111.168L71.216 162.432C70.256 164.672 69.04 166.304 67.568 167.328C66.096 168.352 64.144 168.864 61.712 168.864ZM61.712 227.864C59.28 227.864 57.296 227.352 55.76 226.328C54.288 225.304 53.04 223.672 52.016 221.432L28.784 170.168C27.76 167.928 27.44 165.912 27.824 164.12C28.208 162.328 29.104 160.952 30.512 159.992C31.92 158.968 33.68 158.456 35.792 158.456C38.416 158.456 40.368 159.032 41.648 160.184C42.992 161.336 44.144 163.032 45.104 165.272L64.688 210.584H59.312L78.896 165.176C79.856 162.936 81.008 161.272 82.352 160.184C83.696 159.032 85.584 158.456 88.016 158.456C90 158.456 91.664 158.968 93.008 159.992C94.352 160.952 95.184 162.328 95.504 164.12C95.888 165.912 95.568 167.928 94.544 170.168L71.216 221.432C70.256 223.672 69.04 225.304 67.568 226.328C66.096 227.352 64.144 227.864 61.712 227.864Z" fill="white"/>
  <defs>
    <linearGradient id="gradient" x1="16" x2="16" y1="32" y2="24" gradientUnits="userSpaceOnUse">
      <stop stop-color="#000"/>
      <stop offset="1" stop-color="#000" stop-opacity="0"/>
    </linearGradient>
  </defs>
	<style>
    @media (prefers-color-scheme:dark){:root{filter:invert(100%)}}
  </style>
</svg>
